<svg id="Group" xmlns="http://www.w3.org/2000/svg" width="14.003" height="19" viewBox="0 0 14.003 19">
  <path id="Shape" d="M5.283,18H5a2.006,2.006,0,0,1-2-2V13.69a1.943,1.943,0,0,0-.66-1.47A6.992,6.992,0,0,1,5.6.14,6.722,6.722,0,0,1,7,0a6.992,6.992,0,0,1,4.64,12.23A1.94,1.94,0,0,0,11,13.69V16a2.006,2.006,0,0,1-2,2h-.28a1.979,1.979,0,0,1-3.44,0Z"/>
  <g id="Group-2" data-name="Group" transform="translate(4.676 5.874)">
    <rect id="Rectangle" width="1" height="3" transform="translate(1.828 2.126)"/>
    <rect id="Rectangle-2" data-name="Rectangle" width="1" height="3" transform="translate(0 0.707) rotate(-45)"/>
    <rect id="Rectangle-3" data-name="Rectangle" width="1" height="3" transform="translate(2.536 2.839) rotate(-135)"/>
  </g>
</svg>
